<?xml version="1.0" encoding="utf-8"?>
<!-- Generator: Adobe Illustrator 27.0.0, SVG Export Plug-In . SVG Version: 6.00 Build 0)  -->
<svg version="1.1" id="Layer_1" xmlns="http://www.w3.org/2000/svg" xmlns:xlink="http://www.w3.org/1999/xlink" x="0px" y="0px"
	 viewBox="0 0 720 720" style="enable-background:new 0 0 720 720;" xml:space="preserve">
<style type="text/css">
	.st0{fill:#FFFFFF;}
	.st1{fill-rule:evenodd;clip-rule:evenodd;fill:#FFFFFF;}
</style>
<g>
	<g>
		<path class="st0" d="M223.9,377.4l0.6-4.9l1.5-16.9l0.7-11.2c3,0,5.3,0,7,0c1.4,0,3.6,0,6.4,0c0.2,1.4,0.4,2.4,0.5,3.1
			c0.1,0.7,0.5,2.1,1.1,4.2c0.6,2.1,1,3.9,1.4,5.4s0.9,4.1,1.6,7.8c0.7-2.5,1.4-4.7,1.9-6.5s1.3-3.9,2.2-6.2
			c0.9-2.3,1.4-3.8,1.7-4.5c0.2-0.7,0.6-1.8,1-3.3c2.4,0,4.8,0,7.1,0c1.6,0,3.8,0,6.6,0c-0.3,5.4-0.5,10.1-0.6,14
			c-0.2,7.6-0.3,12.9-0.3,15.7c0,0.6,0,1.7,0,3.2c-2.1,0-3.6,0-4.5,0c-1.2,0-2.8,0-4.6,0c0.1-1.5,0.3-4.9,0.5-10.4
			c0.2-5.5,0.3-8.9,0.3-10.4c0-0.7,0-1.6-0.1-2.8l-3.2,9.8l-4.6,13.7c-2.1,0-3.5,0-4.3,0c-1,0-2.5,0-4.6,0l-3-13.3l-1.7-7.1
			c-0.1-0.3-0.1-0.6-0.2-1c-0.1-0.4-0.2-1.1-0.4-2.1l-0.6,6.7l-0.8,13.7l-0.1,3.1c-2.2,0-3.6,0-4.2,0
			C227.4,377.3,226,377.4,223.9,377.4z"/>
		<path class="st0" d="M292,370.1c-0.2,1-0.6,3.3-1.2,7c-1.9,0.4-3.4,0.6-4.7,0.7s-2.6,0.2-3.9,0.2c-1.9,0-3.7-0.1-5.3-0.4
			c-1.6-0.3-3-0.7-4.2-1.4s-2.1-1.5-2.9-2.5c-0.8-1-1.4-2.2-1.8-3.6c-0.4-1.4-0.6-2.8-0.6-4.3c0-2.1,0.4-4.1,1.2-6s1.9-3.5,3.2-4.6
			s2.8-1.9,4.5-2.4c1.7-0.5,3.4-0.7,5.2-0.7c1.8,0,3.6,0.2,5.2,0.6c1.7,0.4,3.1,1.2,4.2,2.2s2,2.3,2.5,3.6c0.5,1.3,0.7,2.8,0.7,4.3
			c0,0.9-0.1,1.9-0.3,3.1l-16.9,0c0,0.3,0,0.5,0,0.7c0,1.7,0.6,3,1.9,3.8c1.2,0.8,2.8,1.2,4.5,1.2c1.1,0,2.3-0.1,3.6-0.4
			C288.3,371.1,290,370.7,292,370.1z M277.1,362.3h8c0-0.3,0-0.5,0-0.7c0-0.8-0.1-1.5-0.5-2.1c-0.3-0.6-0.7-1-1.3-1.3
			s-1.2-0.4-1.9-0.4c-0.5,0-1,0.1-1.4,0.2c-0.5,0.1-0.9,0.4-1.2,0.7c-0.4,0.3-0.7,0.6-0.9,1c-0.2,0.4-0.4,0.8-0.5,1.1
			C277.4,361.1,277.3,361.6,277.1,362.3z"/>
		<path class="st0" d="M298,359.8c0.3-1.6,0.5-2.7,0.6-3.3c0.1-0.6,0.2-1.5,0.4-2.8c4.6-1,8.6-1.5,12-1.5c1.9,0,3.6,0.2,5.2,0.6
			c1.6,0.4,2.8,1.1,3.7,2.1s1.3,2.3,1.3,4.1c0,0.9-0.1,2.9-0.4,6.1s-0.4,7.3-0.5,12.4c-1.6,0-3.1,0-4.7,0c-1.5,0-3.1,0-4.8,0
			c0.2-1.8,0.5-5.4,0.7-11c-0.6,0.3-1.1,0.5-1.4,0.6s-1,0.3-1.8,0.6c-0.9,0.3-1.5,0.5-2,0.6c-0.5,0.2-0.9,0.4-1.3,0.7
			c-0.4,0.3-0.6,0.6-0.8,0.9s-0.2,0.6-0.2,1c0,0.5,0.2,1,0.6,1.4c0.4,0.4,1.1,0.6,2.1,0.6c0.3,0,0.7,0,1.1-0.1
			c0.4-0.1,0.9-0.2,1.6-0.4c-0.5,1.2-1,3-1.7,5.4c-1.4,0.2-2.7,0.3-3.9,0.3c-2,0-3.7-0.3-5-0.8s-2.4-1.5-3.1-2.7s-1.1-2.5-1.1-3.7
			c0-0.8,0.1-1.5,0.4-2.2s0.7-1.4,1.2-2.1s1.2-1.3,2-1.8c0.8-0.5,1.8-1,3.1-1.4s3-0.8,5-1.2c0.8-0.2,1.6-0.3,2.3-0.5
			c0.7-0.2,1.2-0.4,1.5-0.5c0.3-0.1,0.5-0.3,0.7-0.5c0.2-0.2,0.3-0.4,0.4-0.6s0.1-0.4,0.1-0.6c0-0.6-0.3-1.1-0.8-1.4
			c-0.5-0.3-1.3-0.5-2.3-0.5C305.5,357.4,302.1,358.2,298,359.8z"/>
		<path class="st0" d="M324,377.4l0.4-5.2l0.9-18l0.3-9.7c2.2,0,3.9,0,5,0c1.5,0,3.1,0,4.9,0l-0.5,7.4l-0.9,18.3l-0.2,7.3
			c-1.7,0-3.3,0-4.7,0L324,377.4z"/>
		<path class="st0" d="M338,377.4c0.4-3.7,0.6-6.6,0.7-8.8c0.2-3.3,0.4-7.5,0.6-12.8c0.1-4,0.2-6.9,0.2-8.6v-2.8
			c1.9,0,3.5,0.1,4.9,0.1c1.3,0,3,0,5.2-0.1s4.1-0.1,6-0.1c2.2,0,4,0.1,5.7,0.4c1.6,0.3,3.1,0.8,4.5,1.6c1.4,0.8,2.6,1.9,3.5,3.2
			c1,1.3,1.7,2.8,2.2,4.6s0.8,3.5,0.8,5.4c0,1.8-0.2,3.6-0.6,5.2c-0.4,1.7-0.9,3.2-1.6,4.5c-0.7,1.4-1.5,2.5-2.4,3.5s-2,1.8-3.2,2.5
			c-0.9,0.5-1.8,0.9-2.7,1.2c-0.9,0.3-2.1,0.5-3.7,0.7c-1.7,0.2-3.7,0.3-5.9,0.3l-9.8-0.1C341.6,377.3,340.1,377.3,338,377.4z
			 M348.5,370.1c0.9,0.1,1.8,0.1,2.8,0.1c1.6,0,3.1-0.1,4.4-0.4s2.4-0.9,3.4-1.9s1.7-2.2,2.2-3.7s0.7-3,0.7-4.6c0-1.9-0.4-3.5-1-4.8
			s-1.6-2.2-2.8-2.7c-1.1-0.5-2.7-0.8-4.7-0.8c-1.2,0-2.5,0-4.1,0.1L348.5,370.1z"/>
		<path class="st0" d="M398.2,370.1c-0.2,1-0.6,3.3-1.2,7c-1.9,0.4-3.4,0.6-4.7,0.7s-2.6,0.2-3.9,0.2c-1.9,0-3.7-0.1-5.3-0.4
			c-1.6-0.3-3-0.7-4.2-1.4s-2.1-1.5-2.9-2.5c-0.8-1-1.4-2.2-1.8-3.6c-0.4-1.4-0.6-2.8-0.6-4.3c0-2.1,0.4-4.1,1.2-6s1.9-3.5,3.2-4.6
			s2.8-1.9,4.5-2.4c1.7-0.5,3.4-0.7,5.2-0.7c1.8,0,3.6,0.2,5.2,0.6c1.7,0.4,3.1,1.2,4.2,2.2s2,2.3,2.5,3.6c0.5,1.3,0.7,2.8,0.7,4.3
			c0,0.9-0.1,1.9-0.3,3.1l-16.9,0c0,0.3,0,0.5,0,0.7c0,1.7,0.6,3,1.9,3.8c1.2,0.8,2.8,1.2,4.5,1.2c1.1,0,2.3-0.1,3.6-0.4
			C394.5,371.1,396.2,370.7,398.2,370.1z M383.4,362.3h8c0-0.3,0-0.5,0-0.7c0-0.8-0.1-1.5-0.5-2.1c-0.3-0.6-0.7-1-1.3-1.3
			s-1.2-0.4-1.9-0.4c-0.5,0-1,0.1-1.4,0.2c-0.5,0.1-0.9,0.4-1.2,0.7c-0.4,0.3-0.7,0.6-0.9,1c-0.2,0.4-0.4,0.8-0.5,1.1
			C383.6,361.1,383.5,361.6,383.4,362.3z"/>
		<path class="st0" d="M404.2,359.8c0.3-1.6,0.5-2.7,0.6-3.3c0.1-0.6,0.2-1.5,0.4-2.8c4.6-1,8.6-1.5,12-1.5c1.9,0,3.6,0.2,5.2,0.6
			c1.6,0.4,2.8,1.1,3.7,2.1s1.3,2.3,1.3,4.1c0,0.9-0.1,2.9-0.4,6.1s-0.4,7.3-0.5,12.4c-1.6,0-3.1,0-4.7,0c-1.5,0-3.1,0-4.8,0
			c0.2-1.8,0.5-5.4,0.7-11c-0.6,0.3-1.1,0.5-1.4,0.6s-1,0.3-1.8,0.6c-0.9,0.3-1.5,0.5-2,0.6c-0.5,0.2-0.9,0.4-1.3,0.7
			c-0.4,0.3-0.6,0.6-0.8,0.9s-0.2,0.6-0.2,1c0,0.5,0.2,1,0.6,1.4c0.4,0.4,1.1,0.6,2.1,0.6c0.3,0,0.7,0,1.1-0.1
			c0.4-0.1,0.9-0.2,1.6-0.4c-0.5,1.2-1,3-1.7,5.4c-1.4,0.2-2.7,0.3-3.9,0.3c-2,0-3.7-0.3-5-0.8s-2.4-1.5-3.1-2.7s-1.1-2.5-1.1-3.7
			c0-0.8,0.1-1.5,0.4-2.2s0.7-1.4,1.2-2.1s1.2-1.3,2-1.8c0.8-0.5,1.8-1,3.1-1.4s3-0.8,5-1.2c0.8-0.2,1.6-0.3,2.3-0.5
			c0.7-0.2,1.2-0.4,1.5-0.5c0.3-0.1,0.5-0.3,0.7-0.5c0.2-0.2,0.3-0.4,0.4-0.6s0.1-0.4,0.1-0.6c0-0.6-0.3-1.1-0.8-1.4
			c-0.5-0.3-1.3-0.5-2.3-0.5C411.7,357.4,408.3,358.2,404.2,359.8z"/>
		<path class="st0" d="M430.2,377.4l0.4-5.2l0.9-18l0.3-9.7c2.2,0,3.9,0,5,0c1.5,0,3.1,0,4.9,0l-0.5,7.4l-0.9,18.3l-0.2,7.3
			c-1.7,0-3.3,0-4.7,0L430.2,377.4z"/>
		<path class="st0" d="M445,377.4l0.3-4.4c0.1-1,0.1-2.1,0.2-3.3l0.5-14.4l0.1-5.8c0-1.2,0-2.3,0-3.2v-1.9c3.8,0,7.4,0,10.8,0l6,0
			h3.6c-0.1,1.5-0.2,2.6-0.2,3.4c-2-0.1-4.9-0.2-8.6-0.2l-7.1,0l-0.4,11.4l4.6,0.1c4.4,0,7.6,0,9.5-0.1c-0.1,1.2-0.1,2.3-0.1,3.3
			c-3-0.1-5.5-0.1-7.5-0.1c-2,0-4.2,0-6.7,0.1c-0.2,5.9-0.3,10.9-0.3,15l-2.3,0C447.4,377.3,446.6,377.4,445,377.4z"/>
		<path class="st0" d="M469.3,377.4l0.4-6.1l0.5-10.4l0.2-8l2.2,0l2.2,0c-0.2,2.5-0.3,5.1-0.5,7.9s-0.3,5.7-0.4,9s-0.1,5.8-0.1,7.6
			c-1,0-1.7,0-2.2,0C471.2,377.3,470.5,377.4,469.3,377.4z M470.4,347.6c0-1.5,0.1-2.7,0.1-3.4c0.9,0,1.7,0,2.3,0c0.9,0,1.6,0,2.3,0
			c0,0.5-0.1,1.6-0.1,3.4c-0.9,0-1.6,0-2.2,0S471.4,347.6,470.4,347.6z"/>
		<path class="st0" d="M478.5,377.4c0.8-10.1,1.2-18.2,1.2-24.5l2.2,0c0.5,0,1.2,0,2.1,0l-0.3,4.8c0.4-0.7,0.7-1.2,1-1.6
			s0.6-0.8,1-1.1c0.4-0.4,0.9-0.8,1.4-1.1c0.5-0.4,1.2-0.6,1.9-0.9c0.7-0.2,1.5-0.4,2.3-0.5c0.8-0.1,1.5-0.2,2.3-0.2
			c1.4,0,2.7,0.2,4,0.5s2.4,0.9,3.2,1.6c0.8,0.8,1.4,1.6,1.7,2.6c0.3,1,0.4,2,0.4,3.1c0,0.2,0,0.6,0,1.2c0,0.6,0,1.4-0.1,2.3
			l-0.5,10.1c0,1-0.1,2.1-0.1,3.5c-0.7,0-1.4,0-2.1,0c-0.8,0-1.5,0-2.2,0c0.2-2,0.3-3.8,0.4-5.6l0.3-5.6c0.1-1.9,0.1-3.4,0.1-4.4
			c0-1.4-0.2-2.5-0.7-3.4c-0.5-0.8-1.3-1.5-2.3-2s-2.3-0.7-3.6-0.7c-1.9,0-3.5,0.4-4.8,1.3c-1.2,0.8-2.2,2-2.9,3.5
			c-0.5,1.1-0.8,2.7-1,4.8c-0.2,2.5-0.4,6.5-0.5,12c-0.9,0-1.6,0-2.1,0C480.3,377.3,479.5,377.4,478.5,377.4z"/>
		<path class="st0" d="M529.7,377.4c-1,0-1.6,0-2,0c-0.4,0-1.1,0-2.1,0l0.3-5.2c-0.5,0.9-1,1.6-1.3,2.1s-0.8,1-1.3,1.4
			s-1.1,0.8-1.8,1.2c-0.7,0.4-1.4,0.6-2.2,0.8s-1.7,0.3-2.6,0.3c-1.6,0-3-0.3-4.4-0.8s-2.5-1.4-3.5-2.4c-1-1-1.6-2.3-2-3.7
			c-0.4-1.4-0.6-2.9-0.6-4.4c0-2,0.4-4,1.2-6c0.8-2,1.9-3.6,3.3-4.9s3.1-2.2,4.9-2.7s3.8-0.8,5.8-0.8c1.4,0,3.1,0.2,5,0.5
			c0.1-1.8,0.1-3.2,0.1-4.4c0-1.7,0-3,0-4.1l2.2,0c0.5,0,1.3,0,2.2,0l-0.7,13.6l-0.5,15.6L529.7,377.4L529.7,377.4z M526.2,355.9
			c-1-0.3-1.8-0.5-2.5-0.6c-0.7-0.1-1.3-0.1-2-0.1c-1.5,0-3,0.2-4.4,0.7s-2.7,1.2-3.7,2.2c-1.1,1-1.9,2.3-2.5,3.9
			c-0.6,1.6-0.9,3.1-0.9,4.6s0.3,2.9,0.8,4.2c0.5,1.3,1.4,2.3,2.6,3s2.5,1.1,4,1.1c0.9,0,1.8-0.1,2.5-0.4s1.4-0.6,2.1-1.1
			s1.2-1.1,1.8-2c0.5-0.8,1-1.8,1.3-2.9c0.3-1,0.5-2.2,0.6-3.8c0.1-0.8,0.1-2.3,0.2-4.6L526.2,355.9z"/>
		<path class="st0" d="M554.6,373.5c-0.2,0.9-0.4,2-0.6,3.4c-1.5,0.4-2.9,0.6-4,0.8c-1.1,0.1-2.3,0.2-3.4,0.2c-2,0-3.8-0.2-5.4-0.7
			s-3-1.3-4.1-2.5s-2-2.6-2.5-4.1s-0.8-3.2-0.8-4.9c0-2.4,0.5-4.6,1.4-6.7c0.9-2,2.3-3.7,4.1-4.8c1.8-1.2,4.2-1.8,7-1.8
			c1.5,0,2.9,0.2,4.2,0.6c1.3,0.4,2.5,1.1,3.3,1.9c0.9,0.9,1.6,1.9,2,3.2s0.7,2.7,0.7,4.2c0,0.6,0,1.1-0.2,1.7h-18.4
			c-0.1,0.9-0.1,1.6-0.1,2c0,1.7,0.3,3.2,1.1,4.7s1.8,2.5,3.1,3.2c1.4,0.7,3,1.1,4.8,1.1C549.1,375.1,551.6,374.6,554.6,373.5z
			 M538.3,362h14.4c0-1-0.1-1.8-0.2-2.4c-0.1-0.6-0.3-1.1-0.6-1.8s-0.7-1.1-1.2-1.6s-1.2-0.8-1.9-1s-1.5-0.4-2.4-0.4
			c-0.9,0-1.8,0.1-2.6,0.4s-1.6,0.6-2.2,1.1s-1.2,1-1.6,1.6c-0.4,0.6-0.8,1.2-1,1.8S538.5,361.1,538.3,362z"/>
		<path class="st0" d="M559.1,377.4c0.6-9.3,0.9-16.7,0.9-22.2l0-2.2c0.8,0,1.5,0,2,0c0.6,0,1.3,0,2,0l-0.2,4c0.6-1,1.1-1.8,1.6-2.3
			s1-0.9,1.6-1.3s1.2-0.6,2-0.8c0.7-0.2,1.5-0.3,2.3-0.3c0.7,0,1.3,0.1,2,0.2c0,1.1,0.1,2.2,0.2,3.6c-1-0.3-1.9-0.4-2.7-0.4
			c-1,0-1.8,0.2-2.6,0.5s-1.4,0.8-2,1.4c-0.6,0.6-1.1,1.4-1.5,2.3c-0.3,0.7-0.6,1.6-0.7,2.8c-0.2,1.1-0.3,3.2-0.4,6.2
			c-0.1,2.2-0.1,4.5-0.1,6.9v1.6c-0.9,0-1.6,0-2.1,0C560.8,377.3,560.1,377.4,559.1,377.4z"/>
	</g>
	<g>
		<g>
			<path class="st1" d="M166.1,377.3c2.4,0.9,4.7,0.9,6.8,0l0-1.8l0-55.2c-6.2,7.2-9.9,16.8-8.4,25.4c0.9,0.7,1.5,2.2,1.6,3.1
				l0,26.8L166.1,377.3z"/>
			<path class="st1" d="M185.2,321.5c0.6,0.1,1.6,0.5,2.1,0.6v23.5c-1,0.5-1.5,2.2-1.6,3.3l0,26.6c0,0.6,0,1.2,0,1.8
				c-2.3,0.9-4.6,0.9-6.9,0l0-1.7v-26.8c-0.1-0.9-0.6-2.5-1.6-3.2l-0.1-25.4c0.7,0,1.7,0,2.2,0.1l0,19c0.5,0.2,1.2,0.2,1.8,0l0-18.7
				c0.7,0.1,1.5,0.3,2.2,0.4l-0.1,18.3c0.5,0.2,1.3,0.2,1.8,0L185.2,321.5z"/>
		</g>
		<path class="st1" d="M189.2,322.8c14.1,5.3,24,19.3,24,35.3c-0.2,9.8-3.6,18.5-9.5,25.1l11.5,6.7c2,1.2,4.5,6.8,1.2,10
			c-2.6,2.5-7.4,0.8-9-0.8c-1.4-1.4-4.7-8-7.5-11.9c-6.4,5.4-14.8,9.3-24.6,8.9c-28.1-1.3-38.4-22.9-37.9-37.9
			c1-15.3,4.4-19.1,10.9-26.6l8.5,8.7l10.9-15.2c-4.3,6.6-5.6,13.5-5,20.6l-5.9,8l-8.4-7.5c-0.5,1.1-1.7,2.8-2.5,9
			c-0.1,0.9-0.1,1.8-0.2,3c0.1,16.2,12.4,28.7,29.7,29.6c15.8,0.2,29.9-12.6,29.6-29.5c-0.6-13.4-7.7-22.2-15.6-26L189.2,322.8z"/>
	</g>
</g>
</svg>
