<?xml version="1.0" encoding="utf-8"?>
<!-- Generator: Adobe Illustrator 27.0.0, SVG Export Plug-In . SVG Version: 6.00 Build 0)  -->
<svg version="1.1" id="Layer_1" xmlns="http://www.w3.org/2000/svg" xmlns:xlink="http://www.w3.org/1999/xlink" x="0px" y="0px"
	 viewBox="0 0 512 512" style="enable-background:new 0 0 512 512;" xml:space="preserve">
<style type="text/css">
	.st0{fill-rule:evenodd;clip-rule:evenodd;fill:#ED1C24;}
	.st1{fill-rule:evenodd;clip-rule:evenodd;fill:#FFFFFF;}
</style>
<g>
	<g>
		<path class="st1" d="M227.91,305.35c6.65,2.58,12.96,2.53,18.92,0.01l0.03-4.88l-0.11-152.74
			c-17.16,19.96-27.32,46.52-23.25,70.18c2.54,2.03,4.13,6.02,4.29,8.64l0.11,74.01L227.91,305.35z"/>
		<path class="st1" d="M280.65,151.1c1.71,0.38,4.32,1.27,5.89,1.79l-0.01,65.01c-2.77,1.41-4.25,5.98-4.53,9.17l0.06,73.45
			c0,1.65,0,3.29,0,4.94c-6.46,2.58-12.76,2.38-18.94,0l-0.04-4.72v-74.07c-0.32-2.55-1.75-6.96-4.38-8.8l-0.2-70.26
			c1.88,0.01,4.63,0.14,6.14,0.42l-0.02,52.44c1.5,0.61,3.27,0.58,4.92,0l0.02-51.79c1.87,0.2,4.04,0.78,6.22,1.21l-0.28,50.72
			c1.3,0.59,3.49,0.63,5.09-0.11L280.65,151.1z"/>
	</g>
	<path class="st1" d="M291.82,154.62c39.01,14.71,66.24,53.26,66.24,97.54c-0.58,27.16-10.07,51.03-26.23,69.39l31.68,18.6
		c5.6,3.29,12.39,18.68,3.3,27.52c-7.19,6.99-20.4,2.1-24.97-2.29c-4.02-3.87-13.06-22.23-20.8-32.83
		c-17.79,15.03-40.98,25.73-67.88,24.5c-77.66-3.52-106.28-63.22-104.81-104.89c2.67-42.36,12.25-52.92,30-73.44l23.58,23.99
		l30.15-42c-11.87,18.28-15.48,37.4-13.87,57.05l-16.39,22.08l-23.31-20.79c-1.35,3.02-4.68,7.85-6.89,24.75
		c-0.32,2.45-0.38,4.91-0.46,8.27c0.34,44.9,34.41,79.4,82.01,81.79c43.61,0.58,82.61-34.72,81.71-81.71
		c-1.54-37.12-21.41-61.44-43-71.98L291.82,154.62z"/>
</g>
</svg>
